
<svg width="50" height="50" viewBox="0 0 50 50" fill="none" xmlns="http://www.w3.org/2000/svg">
<path fill-rule="evenodd" clip-rule="evenodd" d="M21.6563 14.0754C25.9993 15.0325 31.6108 18.6333 36.6045 24.0582C44.372 32.4965 43.7559 39.4205 37.6793 38.71C38.0095 44.8763 31.1251 45.074 23.3576 36.6357C18.3817 31.2302 15.2262 25.3248 14.5625 20.8652C14.1746 20.426 13.8557 19.9035 13.633 19.3041C12.0973 15.1708 16.2679 11.219 20.2216 13.0611C20.7788 13.3207 21.2584 13.6674 21.6563 14.0754Z" fill="#C86EAC"/>
<path fill-rule="evenodd" clip-rule="evenodd" d="M34.1108 18.3915C34.5732 22.8797 32.9573 29.4004 29.4405 35.8811C23.9702 45.9615 17.2952 47.4798 16.0597 41.3918C10.3901 43.5931 8.05165 37.002 13.5219 26.9216C17.0262 20.4641 21.5678 15.6128 25.5352 13.6103C25.8251 13.1014 26.2145 12.6338 26.706 12.2357C30.0953 9.49038 35.0995 12.3136 34.6116 16.6958C34.5428 17.3133 34.3683 17.8825 34.1108 18.3915Z" fill="#C86EAC"/>
<path fill-rule="evenodd" clip-rule="evenodd" d="M34.0188 31.7184C29.9664 33.5554 23.3297 33.9946 16.1311 32.5687C4.98274 30.3605 1.47346 24.3748 6.78654 21.3228C2.95225 16.5169 8.39142 12.2457 19.5398 14.4539C26.7132 15.8748 32.6968 18.8016 35.801 22.0406C36.3865 22.1682 36.9645 22.4085 37.5073 22.7728C41.1434 25.2132 40.0827 30.8185 35.8206 31.6861C35.2015 31.8121 34.5944 31.8164 34.0188 31.7184Z" fill="#C86EAC"/>
<path fill-rule="evenodd" clip-rule="evenodd" d="M21.3974 35.6502C18.4382 32.2784 15.9796 26.0368 15.0693 18.6986C13.6495 7.25339 18.1556 2.03577 22.6748 6.23748C25.9747 1.06598 31.6748 5.01734 33.0946 16.4625C34.0016 23.7742 33.1521 30.4059 31.1223 34.4032C31.1811 34.9778 31.1378 35.5776 30.9748 36.1824C29.8305 40.4288 24.1039 41.1334 21.9644 37.291C21.6685 36.7596 21.4832 36.2053 21.3974 35.6502Z" fill="#C86EAC"/>
<path fill-rule="evenodd" clip-rule="evenodd" d="M13.7848 24.8098C15.991 20.8996 21.0906 16.5803 27.7226 13.4388C37.9935 8.57349 44.2877 11.3345 41.7676 16.9833C47.6413 18.593 45.725 25.3063 35.4541 30.1716C28.8453 33.3022 22.325 34.5005 17.9468 33.726C17.4006 33.9721 16.7953 34.1224 16.1467 34.1509C11.8015 34.342 9.41386 29.1609 12.35 25.9119C12.7765 25.44 13.2638 25.074 13.7848 24.8098Z" fill="#C86EAC"/>
<path d="M22.5568 17.0056C22.5624 15.4194 24.824 15.1388 25.217 16.6756C25.5008 17.7854 26.9507 18.06 27.6216 17.1316C28.5507 15.846 30.531 16.9906 29.9587 18.4699C29.5448 19.5398 30.5516 20.6275 31.6435 20.2759C33.1651 19.7859 34.1179 21.879 32.7746 22.7455C31.8084 23.3688 31.9911 24.842 33.0804 25.2103C34.5947 25.7224 34.1822 27.9849 32.587 27.8815C31.4422 27.8073 30.7318 29.108 31.3945 30.0444C32.3109 31.3391 30.6704 32.9328 29.4553 31.9132C28.5778 31.1769 27.239 31.7974 27.235 32.9429C27.2294 34.5291 24.9678 34.8097 24.5748 33.2729C24.291 32.1631 22.8411 31.8885 22.1702 32.8169C21.2411 34.1025 19.2608 32.9579 19.8331 31.4786C20.247 30.4087 19.2403 29.321 18.1483 29.6727C16.6267 30.1627 15.6739 28.0695 17.0172 27.203C17.9834 26.5797 17.8007 25.1065 16.7114 24.7382C15.1971 24.2262 15.6096 21.9636 17.2048 22.067C18.3496 22.1412 19.06 20.8405 18.3973 19.9041C17.4809 18.6094 19.1215 17.0157 20.3365 18.0353C21.214 18.7717 22.5528 18.1511 22.5568 17.0056Z" fill="#F4B442"/>
<path d="M30.5197 20.6984L19.3177 29.2865" stroke="#DC8433" stroke-width="2" stroke-linecap="round"/>
<path d="M31.8941 24.1272L17.9436 25.8577" stroke="#DC8433" stroke-width="2" stroke-linecap="round"/>
<path d="M31.3991 27.7878L18.4382 22.1971" stroke="#DC8433" stroke-width="2" stroke-linecap="round"/>
<path d="M29.1681 30.6994L20.6696 19.2854" stroke="#DC8433" stroke-width="2" stroke-linecap="round"/>
<path d="M25.7983 32.0819L24.0394 17.903" stroke="#DC8433" stroke-width="2" stroke-linecap="round"/>
<path d="M22.1929 31.5647L27.6448 18.4202" stroke="#DC8433" stroke-width="2" stroke-linecap="round"/>
<path d="M19.318 29.2865L30.52 20.6983" stroke="#DC8433" stroke-width="2" stroke-linecap="round"/>
<path d="M17.9436 25.8577L31.8941 24.1272" stroke="#DC8433" stroke-width="2" stroke-linecap="round"/>
<path d="M18.4382 22.1971L31.3991 27.7878" stroke="#DC8433" stroke-width="2" stroke-linecap="round"/>
<path d="M20.6694 19.2854L29.1679 30.6995" stroke="#DC8433" stroke-width="2" stroke-linecap="round"/>
</svg>
