<svg width="32" height="32" viewBox="0 0 32 32" fill="none" xmlns="http://www.w3.org/2000/svg">
  <path
    d="M15.9999 7.05422V4.66755C15.9999 4.06755 15.2799 3.77422 14.8666 4.20089L11.1333 7.92089C10.8666 8.18755 10.8666 8.60089 11.1333 8.86755L14.8533 12.5876C15.2799 13.0009 15.9999 12.7076 15.9999 12.1076V9.72089C20.4133 9.72089 23.9999 13.3076 23.9999 17.7209C23.9999 21.3476 21.5599 24.4142 18.2533 25.3876C17.6933 25.5476 17.3333 26.0809 17.3333 26.6542C17.3333 27.5209 18.1599 28.2009 18.9999 27.9476C23.4266 26.6542 26.6666 22.5742 26.6666 17.7209C26.6666 11.8276 21.8933 7.05422 15.9999 7.05422Z"
    fill="black" />
  <path
    d="M7.99992 17.7209C7.99992 15.9342 8.58659 14.2809 9.58659 12.9342C9.98659 12.4009 9.93325 11.6676 9.46658 11.1876C8.90658 10.6276 7.94658 10.6809 7.46658 11.3209C6.13325 13.1076 5.33325 15.3209 5.33325 17.7209C5.33325 22.5742 8.57325 26.6542 12.9999 27.9476C13.8399 28.2009 14.6666 27.5209 14.6666 26.6542C14.6666 26.0809 14.3066 25.5476 13.7466 25.3876C10.4399 24.4142 7.99992 21.3476 7.99992 17.7209Z"
    fill="black" />
</svg>